
<?xml version="1.0" encoding="utf-8"?>
<!-- Generator: Adobe Illustrator 21.1.0, SVG Export Plug-In . SVG Version: 6.00 Build 0)  -->
<svg version="1.1" id="Ebene_1" xmlns="http://www.w3.org/2000/svg" xmlns:xlink="http://www.w3.org/1999/xlink" x="0px" y="0px"
	 viewBox="0 0 160 60" style="enable-background:new 0 0 160 60;" xml:space="preserve">
<style type="text/css">
	.st0{fill:#F11083;}
	.st1{fill:#82C51D;}
	.st2{fill:#2A3158;}
</style>
<g>
	<path class="st0" d="M77.7,12.5C77.5,9,76.3,6,73.4,3.9c-1.1-0.8-2.3-1.3-3.6-1.6c-2.9-0.6-5.5,0-7.9,1.6c-0.9,0.6-1.7,1.4-2.3,2.3
		c0,0.1-0.1,0.1-0.1,0.2c-0.2-0.4-0.4-0.7-0.6-1c-1.5-2.4-3.5-4.1-6.3-4.8c-2.7-0.7-5.3-0.4-7.7,1.1c-1.9,1.2-3.3,3-4.2,5.1
		c-1,2.4-1.1,5-0.7,7.5c0.5,2.5,1.4,4.8,2.8,7c1.3,2.1,2.9,4,4.7,5.8c0.5,0.5,1,1,1.5,1.4v-9h-2.3l11-10.6l4,3.8V11H64v4l4.7,4.5
		h-2.4v10c1.7-1.1,3.4-2.3,4.9-3.7c2.3-2.1,4.2-4.5,5.4-7.4c0.4-1,0.8-2.1,0.9-3.2c0-0.1,0-0.1,0.1-0.2c0-0.5,0.1-0.9,0.1-1.4
		C77.7,13.1,77.7,12.8,77.7,12.5z"/>
	<g>
		<rect x="56.7" y="18.9" class="st0" width="3" height="3"/>
		<rect x="60.3" y="18.9" class="st0" width="3" height="3"/>
		<rect x="56.7" y="22.5" class="st0" width="3" height="3"/>
		<rect x="60.3" y="22.5" class="st0" width="3" height="3"/>
	</g>
</g>
<g>
	<path class="st1" d="M0.5,49.2c0-3.2,2.5-5.1,6.8-5.4l4.7-0.3v-1.3c0-1.9-1.3-3-3.4-3c-2,0-3.3,1-3.5,2.5H1.2
		c0.2-3.4,3-5.8,7.6-5.8c4.5,0,7.4,2.4,7.4,6v12.4h-4.1v-2.9h-0.1c-1,1.9-3.3,3.2-5.6,3.2C3,54.6,0.5,52.4,0.5,49.2z M12,47.7v-1.4
		l-4.1,0.3c-2,0.1-3.2,1.1-3.2,2.5c0,1.5,1.2,2.4,3,2.4C10.1,51.4,12,49.9,12,47.7z"/>
	<path class="st1" d="M23.9,51.3L23.9,51.3l-0.1,3.1h-4.1V29.9h4.2v9.6H24c1-2.1,3.1-3.4,5.6-3.4c4.5,0,7.4,3.5,7.4,9.3
		c0,5.7-2.9,9.3-7.4,9.3C27,54.6,25,53.4,23.9,51.3z M23.9,45.4c0,3.5,1.8,5.8,4.4,5.8c2.7,0,4.4-2.2,4.4-5.8c0-3.6-1.7-5.8-4.4-5.8
		C25.7,39.6,23.9,41.9,23.9,45.4z"/>
	<path class="st1" d="M59.2,54.3h-4.4l-3.5-13.1h-0.1l-3.5,13.1h-4.4l-4.9-18h4.2l3,13.8h0.1l3.5-13.8h4l3.5,13.8h0.1l3-13.8H64
		L59.2,54.3z"/>
	<path class="st2" d="M83.4,45.4c0,5.7-2.9,9.3-7.4,9.3c-2.6,0-4.6-1.3-5.6-3.3h-0.1v8.9h-4.2V36.4h4.1v3.1h0.1c1-2.1,3-3.4,5.7-3.4
		C80.5,36.1,83.4,39.6,83.4,45.4z M79.1,45.4c0-3.5-1.7-5.8-4.4-5.8c-2.6,0-4.4,2.3-4.4,5.8c0,3.5,1.8,5.8,4.4,5.8
		C77.4,51.2,79.1,48.9,79.1,45.4z"/>
	<path class="st2" d="M86.3,29.9h4.2v24.4h-4.2V29.9z"/>
	<path class="st2" d="M93.4,49.2c0-3.2,2.5-5.1,6.8-5.4l4.7-0.3v-1.3c0-1.9-1.3-3-3.4-3c-2,0-3.3,1-3.5,2.5h-3.9
		c0.2-3.4,3-5.8,7.6-5.8c4.5,0,7.4,2.4,7.4,6v12.4H105v-2.9H105c-1,1.9-3.3,3.2-5.6,3.2C95.9,54.6,93.4,52.4,93.4,49.2z M104.9,47.7
		v-1.4l-4.1,0.3c-2,0.1-3.2,1.1-3.2,2.5c0,1.5,1.2,2.4,3,2.4C103,51.4,104.9,49.9,104.9,47.7z"/>
	<path class="st2" d="M112.5,36.4h4v3.1h0.1c1-2.1,2.9-3.4,5.6-3.4c4,0,6.2,2.5,6.2,6.7v11.6h-4.2V43.6c0-2.5-1.2-4-3.6-4
		c-2.4,0-4,1.7-4,4.3v10.4h-4.2V36.4z"/>
	<path class="st2" d="M147.7,49c-0.5,3.4-3.7,5.7-7.9,5.7c-5.4,0-8.6-3.5-8.6-9.3c0-5.7,3.3-9.4,8.5-9.4c5.1,0,8.3,3.5,8.3,9v1.4
		h-12.6v0.3c0,2.9,1.8,4.8,4.5,4.8c2,0,3.5-1,3.9-2.5H147.7z M135.3,43.6h8.4c-0.1-2.5-1.7-4.3-4.1-4.3
		C137.2,39.3,135.5,41.1,135.3,43.6z"/>
	<path class="st2" d="M150.6,36.4h4v3.1h0.1c0.6-2.2,2.2-3.4,4.3-3.4c0.5,0,1,0.1,1.3,0.2v3.8c-0.4-0.1-1-0.2-1.7-0.2
		c-2.4,0-3.8,1.5-3.8,4.1v10.5h-4.2V36.4z"/>
</g>
</svg>
